<mxfile host="app.diagrams.net" modified="2023-03-10T17:40:10.991Z" agent="5.0 (Windows NT 10.0; Win64; x64) AppleWebKit/537.36 (KHTML, like Gecko) Chrome/109.0.0.0 Safari/537.36 OPR/95.0.0.0" etag="QCNcbUAcLrDmI4ITZX_-" version="21.0.6" type="github">
  <diagram id="R2lEEEUBdFMjLlhIrx00" name="Page-1">
    <mxGraphModel dx="1009" dy="573" grid="1" gridSize="10" guides="1" tooltips="1" connect="1" arrows="1" fold="1" page="1" pageScale="1" pageWidth="850" pageHeight="1100" math="0" shadow="0" extFonts="Permanent Marker^https://fonts.googleapis.com/css?family=Permanent+Marker">
      <root>
        <mxCell id="0" />
        <mxCell id="1" parent="0" />
        <mxCell id="BFUpjknhKFyAoYs9LPXP-1" value="Local" style="rounded=1;arcSize=10;whiteSpace=wrap;html=1;align=center;" vertex="1" parent="1">
          <mxGeometry x="110" y="110" width="100" height="40" as="geometry" />
        </mxCell>
        <mxCell id="BFUpjknhKFyAoYs9LPXP-4" value="" style="edgeStyle=orthogonalEdgeStyle;rounded=0;orthogonalLoop=1;jettySize=auto;html=1;" edge="1" parent="1" source="BFUpjknhKFyAoYs9LPXP-3" target="BFUpjknhKFyAoYs9LPXP-1">
          <mxGeometry relative="1" as="geometry" />
        </mxCell>
        <mxCell id="BFUpjknhKFyAoYs9LPXP-25" style="edgeStyle=orthogonalEdgeStyle;rounded=0;orthogonalLoop=1;jettySize=auto;html=1;" edge="1" parent="1" source="BFUpjknhKFyAoYs9LPXP-3" target="BFUpjknhKFyAoYs9LPXP-24">
          <mxGeometry relative="1" as="geometry" />
        </mxCell>
        <mxCell id="BFUpjknhKFyAoYs9LPXP-3" value="Está en" style="shape=rhombus;perimeter=rhombusPerimeter;whiteSpace=wrap;html=1;align=center;" vertex="1" parent="1">
          <mxGeometry x="365" y="100" width="120" height="60" as="geometry" />
        </mxCell>
        <mxCell id="BFUpjknhKFyAoYs9LPXP-7" style="edgeStyle=orthogonalEdgeStyle;rounded=0;orthogonalLoop=1;jettySize=auto;html=1;entryX=0;entryY=0.5;entryDx=0;entryDy=0;" edge="1" parent="1" source="BFUpjknhKFyAoYs9LPXP-6" target="BFUpjknhKFyAoYs9LPXP-1">
          <mxGeometry relative="1" as="geometry" />
        </mxCell>
        <mxCell id="BFUpjknhKFyAoYs9LPXP-6" value="Código Postal" style="ellipse;whiteSpace=wrap;html=1;align=center;" vertex="1" parent="1">
          <mxGeometry x="20" y="10" width="100" height="40" as="geometry" />
        </mxCell>
        <mxCell id="BFUpjknhKFyAoYs9LPXP-9" value="" style="edgeStyle=orthogonalEdgeStyle;rounded=0;orthogonalLoop=1;jettySize=auto;html=1;" edge="1" parent="1" source="BFUpjknhKFyAoYs9LPXP-8" target="BFUpjknhKFyAoYs9LPXP-1">
          <mxGeometry relative="1" as="geometry" />
        </mxCell>
        <mxCell id="BFUpjknhKFyAoYs9LPXP-8" value="Calle" style="ellipse;whiteSpace=wrap;html=1;align=center;" vertex="1" parent="1">
          <mxGeometry x="140" y="10" width="100" height="40" as="geometry" />
        </mxCell>
        <mxCell id="BFUpjknhKFyAoYs9LPXP-12" style="edgeStyle=orthogonalEdgeStyle;rounded=0;orthogonalLoop=1;jettySize=auto;html=1;entryX=1;entryY=0.5;entryDx=0;entryDy=0;" edge="1" parent="1" source="BFUpjknhKFyAoYs9LPXP-10" target="BFUpjknhKFyAoYs9LPXP-1">
          <mxGeometry relative="1" as="geometry" />
        </mxCell>
        <mxCell id="BFUpjknhKFyAoYs9LPXP-10" value="Número" style="ellipse;whiteSpace=wrap;html=1;align=center;" vertex="1" parent="1">
          <mxGeometry x="250" y="50" width="100" height="40" as="geometry" />
        </mxCell>
        <mxCell id="BFUpjknhKFyAoYs9LPXP-26" style="edgeStyle=orthogonalEdgeStyle;rounded=0;orthogonalLoop=1;jettySize=auto;html=1;entryX=0.5;entryY=0;entryDx=0;entryDy=0;" edge="1" parent="1" source="BFUpjknhKFyAoYs9LPXP-17" target="BFUpjknhKFyAoYs9LPXP-24">
          <mxGeometry relative="1" as="geometry" />
        </mxCell>
        <mxCell id="BFUpjknhKFyAoYs9LPXP-17" value="Código" style="ellipse;whiteSpace=wrap;html=1;align=center;fontStyle=4;" vertex="1" parent="1">
          <mxGeometry x="550" y="10" width="100" height="40" as="geometry" />
        </mxCell>
        <mxCell id="BFUpjknhKFyAoYs9LPXP-27" style="edgeStyle=orthogonalEdgeStyle;rounded=0;orthogonalLoop=1;jettySize=auto;html=1;entryX=0.5;entryY=0;entryDx=0;entryDy=0;" edge="1" parent="1" source="BFUpjknhKFyAoYs9LPXP-19" target="BFUpjknhKFyAoYs9LPXP-24">
          <mxGeometry relative="1" as="geometry" />
        </mxCell>
        <mxCell id="BFUpjknhKFyAoYs9LPXP-19" value="Nombre" style="ellipse;whiteSpace=wrap;html=1;align=center;" vertex="1" parent="1">
          <mxGeometry x="680" y="10" width="100" height="40" as="geometry" />
        </mxCell>
        <mxCell id="BFUpjknhKFyAoYs9LPXP-28" style="edgeStyle=orthogonalEdgeStyle;rounded=0;orthogonalLoop=1;jettySize=auto;html=1;entryX=0.5;entryY=1;entryDx=0;entryDy=0;" edge="1" parent="1" source="BFUpjknhKFyAoYs9LPXP-22" target="BFUpjknhKFyAoYs9LPXP-24">
          <mxGeometry relative="1" as="geometry" />
        </mxCell>
        <mxCell id="BFUpjknhKFyAoYs9LPXP-30" style="edgeStyle=orthogonalEdgeStyle;rounded=0;orthogonalLoop=1;jettySize=auto;html=1;" edge="1" parent="1" source="BFUpjknhKFyAoYs9LPXP-22" target="BFUpjknhKFyAoYs9LPXP-29">
          <mxGeometry relative="1" as="geometry" />
        </mxCell>
        <mxCell id="BFUpjknhKFyAoYs9LPXP-22" value="Pertenece" style="shape=rhombus;perimeter=rhombusPerimeter;whiteSpace=wrap;html=1;align=center;" vertex="1" parent="1">
          <mxGeometry x="600" y="230" width="120" height="60" as="geometry" />
        </mxCell>
        <mxCell id="BFUpjknhKFyAoYs9LPXP-24" value="Población" style="rounded=1;arcSize=10;whiteSpace=wrap;html=1;align=center;" vertex="1" parent="1">
          <mxGeometry x="610" y="110" width="100" height="40" as="geometry" />
        </mxCell>
        <mxCell id="BFUpjknhKFyAoYs9LPXP-29" value="Provincia" style="rounded=1;arcSize=10;whiteSpace=wrap;html=1;align=center;" vertex="1" parent="1">
          <mxGeometry x="610" y="390" width="100" height="40" as="geometry" />
        </mxCell>
        <mxCell id="BFUpjknhKFyAoYs9LPXP-32" style="edgeStyle=orthogonalEdgeStyle;rounded=0;orthogonalLoop=1;jettySize=auto;html=1;entryX=0.5;entryY=1;entryDx=0;entryDy=0;" edge="1" parent="1" source="BFUpjknhKFyAoYs9LPXP-31" target="BFUpjknhKFyAoYs9LPXP-29">
          <mxGeometry relative="1" as="geometry" />
        </mxCell>
        <mxCell id="BFUpjknhKFyAoYs9LPXP-31" value="Nombre" style="ellipse;whiteSpace=wrap;html=1;align=center;" vertex="1" parent="1">
          <mxGeometry x="690" y="480" width="100" height="40" as="geometry" />
        </mxCell>
        <mxCell id="BFUpjknhKFyAoYs9LPXP-34" style="edgeStyle=orthogonalEdgeStyle;rounded=0;orthogonalLoop=1;jettySize=auto;html=1;entryX=0.5;entryY=1;entryDx=0;entryDy=0;" edge="1" parent="1" source="BFUpjknhKFyAoYs9LPXP-33" target="BFUpjknhKFyAoYs9LPXP-29">
          <mxGeometry relative="1" as="geometry" />
        </mxCell>
        <mxCell id="BFUpjknhKFyAoYs9LPXP-33" value="Código" style="ellipse;whiteSpace=wrap;html=1;align=center;fontStyle=4;" vertex="1" parent="1">
          <mxGeometry x="560" y="480" width="100" height="40" as="geometry" />
        </mxCell>
        <mxCell id="BFUpjknhKFyAoYs9LPXP-35" value="Producto" style="rounded=1;arcSize=10;whiteSpace=wrap;html=1;align=center;" vertex="1" parent="1">
          <mxGeometry x="110" y="380" width="100" height="40" as="geometry" />
        </mxCell>
        <mxCell id="BFUpjknhKFyAoYs9LPXP-37" style="edgeStyle=orthogonalEdgeStyle;rounded=0;orthogonalLoop=1;jettySize=auto;html=1;" edge="1" parent="1" source="BFUpjknhKFyAoYs9LPXP-36" target="BFUpjknhKFyAoYs9LPXP-1">
          <mxGeometry relative="1" as="geometry" />
        </mxCell>
        <mxCell id="BFUpjknhKFyAoYs9LPXP-38" style="edgeStyle=orthogonalEdgeStyle;rounded=0;orthogonalLoop=1;jettySize=auto;html=1;entryX=0.5;entryY=0;entryDx=0;entryDy=0;" edge="1" parent="1" source="BFUpjknhKFyAoYs9LPXP-36" target="BFUpjknhKFyAoYs9LPXP-35">
          <mxGeometry relative="1" as="geometry" />
        </mxCell>
        <mxCell id="BFUpjknhKFyAoYs9LPXP-36" value="Vende" style="shape=rhombus;perimeter=rhombusPerimeter;whiteSpace=wrap;html=1;align=center;" vertex="1" parent="1">
          <mxGeometry x="100" y="230" width="120" height="60" as="geometry" />
        </mxCell>
        <mxCell id="BFUpjknhKFyAoYs9LPXP-41" style="edgeStyle=orthogonalEdgeStyle;rounded=0;orthogonalLoop=1;jettySize=auto;html=1;entryX=0.5;entryY=1;entryDx=0;entryDy=0;" edge="1" parent="1" source="BFUpjknhKFyAoYs9LPXP-40" target="BFUpjknhKFyAoYs9LPXP-35">
          <mxGeometry relative="1" as="geometry" />
        </mxCell>
        <mxCell id="BFUpjknhKFyAoYs9LPXP-40" value="Código" style="ellipse;whiteSpace=wrap;html=1;align=center;fontStyle=4;" vertex="1" parent="1">
          <mxGeometry x="50" y="480" width="100" height="40" as="geometry" />
        </mxCell>
        <mxCell id="BFUpjknhKFyAoYs9LPXP-43" style="edgeStyle=orthogonalEdgeStyle;rounded=0;orthogonalLoop=1;jettySize=auto;html=1;entryX=0.5;entryY=1;entryDx=0;entryDy=0;" edge="1" parent="1" source="BFUpjknhKFyAoYs9LPXP-42" target="BFUpjknhKFyAoYs9LPXP-35">
          <mxGeometry relative="1" as="geometry" />
        </mxCell>
        <mxCell id="BFUpjknhKFyAoYs9LPXP-42" value="&lt;span style=&quot;border-bottom: 1px dotted&quot;&gt;Nombre único&lt;/span&gt;" style="ellipse;whiteSpace=wrap;html=1;align=center;" vertex="1" parent="1">
          <mxGeometry x="170" y="480" width="100" height="40" as="geometry" />
        </mxCell>
        <mxCell id="BFUpjknhKFyAoYs9LPXP-50" style="edgeStyle=orthogonalEdgeStyle;rounded=0;orthogonalLoop=1;jettySize=auto;html=1;entryX=0;entryY=0.5;entryDx=0;entryDy=0;" edge="1" parent="1" source="BFUpjknhKFyAoYs9LPXP-44" target="BFUpjknhKFyAoYs9LPXP-35">
          <mxGeometry relative="1" as="geometry" />
        </mxCell>
        <mxCell id="BFUpjknhKFyAoYs9LPXP-44" value="Descripción" style="ellipse;whiteSpace=wrap;html=1;align=center;" vertex="1" parent="1">
          <mxGeometry y="320" width="100" height="40" as="geometry" />
        </mxCell>
        <mxCell id="BFUpjknhKFyAoYs9LPXP-46" style="edgeStyle=orthogonalEdgeStyle;rounded=0;orthogonalLoop=1;jettySize=auto;html=1;entryX=1;entryY=0.5;entryDx=0;entryDy=0;" edge="1" parent="1" source="BFUpjknhKFyAoYs9LPXP-45" target="BFUpjknhKFyAoYs9LPXP-35">
          <mxGeometry relative="1" as="geometry" />
        </mxCell>
        <mxCell id="BFUpjknhKFyAoYs9LPXP-45" value="Precio" style="ellipse;whiteSpace=wrap;html=1;align=center;" vertex="1" parent="1">
          <mxGeometry x="260" y="420" width="100" height="40" as="geometry" />
        </mxCell>
      </root>
    </mxGraphModel>
  </diagram>
</mxfile>
